<?xml version="1.0" encoding="utf-8"?>
<!-- Generator: Adobe Illustrator 22.1.0, SVG Export Plug-In . SVG Version: 6.00 Build 0)  -->
<svg version="1.1" id="Capa_1" xmlns="http://www.w3.org/2000/svg" xmlns:xlink="http://www.w3.org/1999/xlink" x="0px" y="0px"
	 viewBox="0 0 512 512" style="enable-background:new 0 0 512 512;" xml:space="preserve">
<style type="text/css">
	.st0{fill:#c21718;}
</style>
<g id="zut7kl_6_">
	<g>
		<path class="st0" d="M78.5,315.2c12.8,0,25.6,0,39.1,0c0,26.4,0,52.1,0,78.3c92.2,0,183.8,0,275.9,0c0-91.4,0-183,0-275
			c-91.5,0-183.1,0-275.3,0c0,25.8,0,51.4,0,78.4c-13.7,0-26.7,0-39.7,0c0-28.9,0-57.9,0-86.8c5.2-16.6,15.9-27.5,33.1-31.6
			c96.2,0,192.5,0,288.7,0c17.7,4.3,28.6,15.6,33.1,33.1c0,96.2,0,192.5,0,288.7c-4.4,17.7-15.5,28.6-33.1,33.1
			c-96.2,0-192.5,0-288.7,0c-17.7-4.4-28.8-15.4-33.1-33.1C78.5,372,78.5,343.6,78.5,315.2z"/>
		<path class="st0" d="M78.5,236.3c63,0,126.1,0,188.8,0c-16.6-16.6-33-33-49.1-49c10.6-10.5,19.6-19.5,28.4-28.3
			c32,32,64.6,64.7,97,97.2c-32.2,32.2-64.8,64.9-97.3,97.4c-8.6-8.7-17.5-17.6-27.9-28.2c16.7-15,34-30.6,51.2-46.1
			c-0.8-1.1-1.6-2.2-2.5-3.2c-1.6-0.2-3.3-0.7-4.9-0.7c-59.7,0-119.4,0-179.1,0c-1.6,0-3.1,0.3-4.7,0.4
			C78.5,262.6,78.5,249.4,78.5,236.3z"/>
	</g>
</g>
</svg>
