<?xml version="1.0" encoding="utf-8"?>
<!-- Generator: Adobe Illustrator 22.1.0, SVG Export Plug-In . SVG Version: 6.00 Build 0)  -->
<svg version="1.1" id="Capa_1" xmlns="http://www.w3.org/2000/svg" xmlns:xlink="http://www.w3.org/1999/xlink" x="0px" y="0px"
	 viewBox="0 0 512 512" style="enable-background:new 0 0 512 512;" xml:space="preserve">
<style type="text/css">
	.st0{fill:#c21718;}
</style>
<g id="cZuXZN_5_">
	<g>
		<path class="st0" d="M306.5,377.7c0,8.3,0.1,16,0,23.8c0,2.5,0.8,3.3,3.3,3.3c29.6-0.1,59.2,0,88.7-0.1c0.8,0,1.5-0.1,2.7-0.2
			c0-58.5,0-116.9,0-175.6c-54.2,0-108.1,0-162.3,0c0,69.8,0,139.2,0,208.9c-53.9,0-107.5,0-161.4,0c0-121.1,0-242.2,0-363.8
			c1.4-0.1,2.9-0.2,4.4-0.2c71.9,0,143.8,0,215.6,0c1.7,0,3.4,0,5.1-0.1c2.9-0.2,4.1,0.7,4.1,3.9c-0.2,26.4-0.1,52.9-0.2,79.3
			c0,2.7-0.1,5.4,0,8.1c0.1,2.1-0.8,2.7-2.8,2.7c-9.1,0-18.2-0.1-27.3,0c-2.4,0-3.1-1-3.1-3.2c0.1-8.3,0-16.6,0-25
			c0-9.6-0.2-19.1,0-28.7c0.1-3.7-2-3.7-4.7-3.7c-41.6,0-83.2,0-124.9,0c-9.9,0-19.8,0.1-29.7-0.1c-2.7,0-3.5,0.8-3.5,3.4
			c0.1,54.7,0.2,109.3,0.2,164c0,41.7-0.1,83.5-0.1,125.2c0,4.9,0,4.9,5,4.9c28.6,0,57.1-0.1,85.7,0.1c3.4,0,4.3-0.9,4.3-4.3
			c-0.1-66.7-0.1-133.4-0.1-200.1c0-1.5,0.1-3.1,0.2-4.9c76.3,0,152.3,0,228.6,0c0,80.8,0,161.5,0,242.5c-1.3,0.1-2.5,0.2-3.7,0.2
			c-51.1,0-102.1,0-153.2,0.1c-3.5,0-4.3-1.1-4.3-4.4c0.1-17.3,0.1-34.6,0-52c0-3.1,0.7-4.3,4.1-4.2
			C286.9,377.9,296.5,377.7,306.5,377.7z"/>
		<path class="st0" d="M145.1,317c10.5,0,20.7,0,30.9,0.1c0.7,0,2.1,1.2,2.1,1.8c0.1,10.3,0.1,20.6,0.1,31.2c-11.1,0-21.9,0-33.1,0
			C145.1,339.4,145.1,328.4,145.1,317z"/>
		<path class="st0" d="M144.9,228.3c0-10.8,0-21.6,0-32.6c10.9,0,21.7,0,33.2,0c0,3.4,0,6.9,0,10.3c0,6.6,0,13.3,0,19.9
			c0,1.6-0.1,2.9-2.2,2.9c-9.9,0-19.8,0-29.7-0.1C145.9,228.7,145.4,228.5,144.9,228.3z"/>
		<path class="st0" d="M145,256.4c11,0,21.8,0,32.9,0c0.1,1.4,0.2,2.7,0.2,4c0,8.7,0,17.3,0,26c0,1.9-0.1,3.3-2.6,3.3
			c-9.7-0.1-19.3,0-29-0.1c-0.4,0-0.9-0.2-1.5-0.3C145,278.4,145,267.5,145,256.4z"/>
		<path class="st0" d="M334.3,256.4c11,0,21.8,0,32.7,0c0,11,0,21.8,0,33.1c-2.8,0-5.5,0-8.2,0c-7.3,0-14.6,0-21.9,0
			c-1.7,0-3.1,0-3.1-2.4c0.1-9.8,0-19.5,0.1-29.3C334,257.5,334.2,257,334.3,256.4z"/>
		<path class="st0" d="M367,350.3c-11,0-21.7,0-32.7,0c-0.1-0.9-0.3-1.8-0.3-2.6c0-9.3-0.1-18.7,0.1-28c0-0.9,1.1-2.4,1.7-2.5
			c10.3-0.2,20.7-0.1,31.3-0.1C367,328.2,367,339,367,350.3z"/>
		<path class="st0" d="M144.8,134.8c11.3,0,22,0,33,0c0.1,0.8,0.4,1.6,0.4,2.3c0,9.2-0.1,18.4,0,27.6c0,2.4-0.8,3.1-3.1,3.1
			c-9.1-0.1-18.2,0-27.3,0c-1.4,0-3,0.3-3-2.1C144.8,155.6,144.8,145.4,144.8,134.8z"/>
		<path class="st0" d="M238.9,135.1c0,10.3,0,20.4-0.1,30.5c0,0.7-1.2,2.1-1.8,2.1c-10.3,0.1-20.6,0.1-31.4,0.1c0-2.3,0-4.2,0-6.1
			c0-8,0-16,0-23.9c0-1.6-0.1-3.1,2.3-3.1c9.9,0.1,19.8,0.1,29.7,0.1C237.9,134.7,238.2,134.9,238.9,135.1z"/>
		<path class="st0" d="M306.2,350.4c-10.4,0-20.6,0-30.8-0.1c-0.7,0-2-1.4-2-2.2c-0.1-9.5-0.1-19.1,0-28.6c0-0.8,1.2-2.3,1.9-2.3
			c10.2-0.2,20.4-0.1,30.9-0.1C306.2,328.2,306.2,339,306.2,350.4z"/>
		<path class="st0" d="M306.4,256.3c0,11.3,0,22,0,33.3c-5.2,0-10.2,0-15.2,0c-4.9,0-9.9-0.1-14.8,0c-2.1,0-3-0.6-3-2.9
			c0.1-9.3,0-18.7,0.1-28c0-0.8,1.2-2.3,1.9-2.3C285.5,256.2,295.8,256.3,306.4,256.3z"/>
	</g>
</g>
</svg>
