<?xml version="1.0" encoding="utf-8"?>
<!-- Generator: Adobe Illustrator 22.1.0, SVG Export Plug-In . SVG Version: 6.00 Build 0)  -->
<svg version="1.1" id="Capa_1" xmlns="http://www.w3.org/2000/svg" xmlns:xlink="http://www.w3.org/1999/xlink" x="0px" y="0px"
	 viewBox="0 0 512 512" style="enable-background:new 0 0 512 512;" xml:space="preserve">
<style type="text/css">
	.st0{fill:#c21718;}
</style>
<g id="PgXMAT_1_">
	<g>
		<path class="st0" d="M291.6,187c44.8,0,89.5,0,134.3,0c29,0,41,11.9,41.1,40.5c0,53.3,0,106.6,0,159.9c0,30.4-15.5,45.8-45.8,45.8
			c-88.7,0-177.4,0-266.1,0c-28.9,0-45.2-16.4-45.2-45.3c0-51.3,0-102.5,0-153.8c0-31.3,15.8-47,47.5-47
			C202.1,187,246.9,187,291.6,187z M127.5,305.5c0,27.9-0.1,55,0,82.2c0.1,19,8.7,27.7,27.6,27.8c26.9,0.1,53.7,0,80.6,0
			c62.3,0,124.5,0,186.8,0c15.2,0,26.2-7.3,26.5-19.6c0.8-30,0.2-60,0.2-90.4C341.6,305.5,235.2,305.5,127.5,305.5z M449.3,246.9
			c0-8.9,0.2-16.5,0-24.2c-0.3-11.6-5.6-17.2-17.3-17.3c-93.9-0.1-187.8-0.1-281.7,0c-11.8,0-20.5,7.4-22.1,18.7
			c-1.1,7.4-0.2,15-0.2,22.7C235.5,246.9,341.6,246.9,449.3,246.9z"/>
		<path class="st0" d="M362.7,180.1c-4.2,0-8.4,0-12.6,0c-64.3,0-128.5,0.1-192.8-0.1c-15.2,0-28.9,3.2-40.3,14
			c-2.2,2-6.4,2.9-9.6,2.7c-10.1-0.9-20.1-2.6-31.6-4.2c-3.2,21.2-6.4,41.9-9.5,62.7c-1.1,7.2-2.3,14.5-2.9,21.7
			c-1.5,16.9,5.6,25.9,22.5,28.7c5.2,0.9,10.4,1.6,16.3,2.5c0,5.9,0,11.3,0,18.1c-10.5-1.9-20.6-2.8-30.2-5.7
			c-17.3-5.2-29.2-23.3-26.7-41.8c7.6-55.1,15.4-110.2,24.1-165.2c3.9-24.8,24.3-37.8,49.2-34C209,93.2,299.3,107,389.7,120.5
			c34.8,5.2,38.1,30.6,31,54.8c-0.9,3.2-10.1,4-17.7,6.7c1.1-9.2,1.8-15.1,2.4-21c1.5-15.3-2.3-20.1-18.3-22.7
			c-38.1-6-76.3-11.7-114.5-17.4c-51-7.7-102-15.2-153.1-22.8c-22.5-3.4-31.5,3.5-34,26.3c-0.3,3.2-0.6,6.3-1,10.7
			c93.2,14.2,185.7,28.2,278.2,42.3C362.7,178.3,362.7,179.2,362.7,180.1z"/>
		<path class="st0" d="M350.4,379.3H233.2c-11.4,0-20.8-9.3-20.8-20.8v0c0-11.4,9.3-20.8,20.8-20.8h117.2c11.4,0,20.8,9.3,20.8,20.8
			v0C371.2,370,361.8,379.3,350.4,379.3z"/>
	</g>
</g>
</svg>
