<?xml version="1.0" encoding="utf-8"?>
<!-- Generator: Adobe Illustrator 22.1.0, SVG Export Plug-In . SVG Version: 6.00 Build 0)  -->
<svg version="1.1" id="Capa_1" xmlns="http://www.w3.org/2000/svg" xmlns:xlink="http://www.w3.org/1999/xlink" x="0px" y="0px"
	 viewBox="0 0 512 512" style="enable-background:new 0 0 512 512;" xml:space="preserve">
<style type="text/css">
	.st0{fill:#d3d3d3;}
</style>
<g id="_x35_4HenY_6_">
	<g>
		<path class="st0" d="M374.3,441.7c-78.8,0-157.7,0-236.5,0c-15.5-6.2-19-11.4-19-28.4c0-40.2,0-80.5,0-120.7
			c0-65.6,0-131.2,0-196.9c0-5.7,0.9-11,4.2-15.8c3.6-5.2,8.9-7.9,14.8-9.7c63.6,0,127.2,0,190.8,0c20.6,22.4,41.2,44.9,61.9,67.3
			c2.1,2.2,2.8,4.4,2.8,7.4c-0.1,49.9-0.1,99.9-0.1,149.8c0,40.8-0.1,81.5,0,122.3c0,8.3-2.5,15.3-9.3,20.2
			C381.1,439.2,377.5,440.2,374.3,441.7z M314.7,89.3c-1.6,0-2.7,0-3.8,0c-55.6,0-111.2,0-166.8,0c-5.4,0-6.3,1-6.3,6.4
			c0,106.8,0,213.5,0,320.3c0,5.9,0.8,6.7,6.7,6.7c74.4,0,148.7,0,223.1,0c5.8,0,6.6-0.8,6.6-6.7c0-85.8,0-171.7,0-257.5
			c0-1.3,0-2.5,0-4c-1.9,0-3.2,0-4.5,0c-14.4,0-28.8,0-43.2,0c-8,0-11.8-3.7-11.8-11.6c0-13.7,0-27.3,0-41
			C314.7,97.8,314.7,93.8,314.7,89.3z M333.9,135c9.2,0,18.3,0,28.1,0c-9.5-10.3-18.5-20.1-28.1-30.5
			C333.9,115.3,333.9,125,333.9,135z"/>
		<path class="st0" d="M252.9,266.8c26,0,52,0,78,0c1.4,0,2.9,0,4.3,0.2c3.4,0.6,5.8,3.4,5.8,6.8c0,3.5-2.1,6.3-5.7,6.9
			c-1.5,0.3-3.1,0.4-4.7,0.4c-52,0-104,0-156,0c-1.4,0-2.9-0.1-4.3-0.3c-3.7-0.7-6-3.5-5.9-7.1c0.1-3.5,2.7-6.3,6.4-6.8
			c1.3-0.2,2.7-0.1,4-0.1C200.9,266.8,226.9,266.8,252.9,266.8z"/>
		<path class="st0" d="M252.5,328.5c-25.8,0-51.5,0-77.3,0c-1.2,0-2.4,0.1-3.6-0.1c-4.4-0.5-7.1-3.4-7-7.3c0.1-3.8,2.8-6.5,7-7
			c1-0.1,1.9-0.1,2.9-0.1c52.2,0,104.5,0,156.7,0c1.7,0,3.4,0.1,5,0.6c3.1,0.9,4.8,3.2,4.9,6.4c0.1,3.4-1.5,5.8-4.8,6.8
			c-1.6,0.5-3.3,0.6-5,0.6C305,328.5,278.7,328.5,252.5,328.5z"/>
		<path class="st0" d="M252.9,186.3c-26.2,0-52.5,0-78.7,0c-1.7,0-3.4-0.1-5-0.6c-3.2-1.1-4.9-3.6-4.7-7c0.2-3.2,1.9-5.5,5.1-6.3
			c1.5-0.4,3.1-0.5,4.7-0.5c52.4,0,104.7,0,157.1,0c1.6,0,3.2,0.1,4.6,0.5c3.1,0.9,4.8,3.1,5,6.3c0.1,3.4-1.4,5.9-4.7,6.9
			c-1.6,0.5-3.3,0.6-5,0.6C305.2,186.4,279.1,186.3,252.9,186.3z"/>
		<path class="st0" d="M253.1,220.2c25.1,0,50.3,0,75.4,0c0.8,0,1.7,0,2.5,0c6.8,0,10,2.4,10,7.2c-0.1,4.7-3.3,7-9.8,7
			c-19.5,0-38.9,0-58.4,0c-32.6,0-65.3,0-97.9,0c-1.6,0-3.2,0-4.7-0.3c-3.4-0.6-5.7-3.6-5.7-7c0.1-3.4,2.5-6.3,5.9-6.8
			c1.5-0.2,3.1-0.2,4.7-0.2C201.1,220.2,227.1,220.2,253.1,220.2z"/>
	</g>
</g>
</svg>
