<?xml version="1.0" encoding="utf-8"?>
<!-- Generator: Adobe Illustrator 22.1.0, SVG Export Plug-In . SVG Version: 6.00 Build 0)  -->
<svg version="1.1" id="Capa_1" xmlns="http://www.w3.org/2000/svg" xmlns:xlink="http://www.w3.org/1999/xlink" x="0px" y="0px"
	 viewBox="0 0 512 512" style="enable-background:new 0 0 512 512;" xml:space="preserve">
<style type="text/css">
	.st0{fill:#d3d3d3;}
</style>
<g id="zuqEA8_6_">
	<g>
		<path class="st0" d="M289.5,35.9C307.8,47,326.1,58,344.4,69.1c10.6,6.4,11.2,8.8,5.1,19.4c-1.6,2.8-3.3,5.6-5,8.4
			c-8.6,14.8-9.1,14.9-24.8,7.6c-4.1,6.8-8.2,13.8-12.9,21.8c13.6,5.8,9.6,14.6,2.6,24c8.6,5.9,16.4,11.6,24.5,16.8
			c16,10.2,24.8,25,26.2,43.5c1.9,25,2.8,50.1,3.7,75.1c1.6,44,2.9,87.9,4.3,131.9c0.1,2.2,0.3,4.5,0.5,8c7.9,0,15.2-0.2,22.6,0
			c22.9,0.6,38.4,22.4,31.1,43.9c-0.9,2.5-3.6,4.4-5.5,6.6c-107,0-213.9,0-320.9,0c-7.4-10.8-5.9-22.4-1.5-33.3
			c4.7-11.7,14.9-16.8,27.3-17.2c11.4-0.3,22.8-0.3,34.2,0c5.4,0.2,8.9-1.3,11.7-6.3c7.7-13.9,16-27.5,24.2-41.6
			c-2.9-1.8-5.4-3.3-7.6-4.7c-0.9,0.4-1.7,0.5-1.9,0.9c-12.4,21.1-11.1,19.2-31.6,7.3c-13.2-7.7-26.3-15.5-39.6-23.2
			c-13.9-8.1-14.2-9.2-6-23.4c1-1.7,1.9-3.4,3.3-6c-4.8-3-9.3-5.9-14-8.6c-6.3-3.6-8-8.1-4.1-14.5c3.7-6.1,7.4-12.2,10.9-18.5
			c3.6-6.4,8.3-7.6,14.6-4c34.2,20.1,68.4,40.3,102.6,60.4c6.9,4,8.9,9.2,3.7,17c4.8,2.9,9.1,5.5,14.4,8.8
			c4.9-8.3,9.7-16.2,14.5-24.2c7.4-12.6,15-25.1,22.2-37.9c7.8-13.8,4.6-25.9-8.9-34.3c-6.1-3.8-12.3-7.2-19.5-11.4
			c-2.5,4.1-5.1,8.1-7.5,12.1c-9.7,16.3-9.6,16.3-27,7.8c-4.7,7.8-9.7,15.7-14.1,23.8c-4,7.2-9,8.8-16,4.5c-5.3-3.2-10.6-6.3-16-9.3
			c-6.4-3.6-7.4-8.6-3.7-14.7c4.8-8.1,9.5-16.2,14.5-24.9c-1.8-1.4-3.2-2.6-4.7-3.6c-9.9-6.4-10.5-8.5-4.5-18.8
			c25.8-44,51.7-88.1,77.6-132.1c6.4-10.8,7.9-11.3,20.1-5.8c4.2-7,8.5-14.2,12.7-21.3c-13.7-11.2-13.8-11.3-4.5-26.8
			c3.3-5.5,6.8-10.9,10.2-16.4C284.3,35.9,286.9,35.9,289.5,35.9z M183.9,424.9c56.5,0,111.6,0,167.5,0c0-2.6,0.1-4.5,0-6.4
			c-2.3-63.5-5.2-127-6.8-190.6c-0.9-35.8-10.4-42.7-46.6-62.7c0,6.1-1.8,11.9,0.3,15.3c8.4,13.4,10.2,26.9,2.5,40.6
			c-8,14.2-21.1,20.2-37.1,17.9c-6.9-1-8.4,2.2-9.6,7.7c7.2,4.3,14.3,8.3,21,12.7c18.5,12.1,24.6,34.8,13.9,54
			c-13,23.3-27,46-40.4,69.1c-4.2,7.2-9.3,8.2-16.2,3.8c-6.2-3.9-12.7-7.3-19.4-11.1C203,392.4,193.7,408.3,183.9,424.9z
			 M256.6,116.9c-25.1,42.7-49.9,84.8-74.8,127.2c13.3,7.9,25.9,15.2,39.2,23.1c7-11.9,13.9-23.2,20.3-34.8c0.9-1.6,0.1-5-1.1-6.7
			c-9.3-13.3-10.6-27.2-2.6-41.2c7.9-13.8,20.6-19,36.3-17.9c2.6,0.2,6.5-1.2,7.9-3.2c5.1-7.4,9.3-15.3,14.2-23.5
			C282.5,132.1,270,124.8,256.6,116.9z M404.8,458.3c-0.2-11.9-3.8-15.4-15.5-15.4c-52.1,0-104.2,0-156.3,0c-36.5,0-73-0.1-109.4,0
			c-11,0-15.2,4.5-14.4,15.4C207.4,458.3,305.7,458.3,404.8,458.3z M288.6,203.1c0-10.2-8.9-19.5-19.1-19.9
			c-10.6-0.4-20.1,8.9-20.2,19.6c-0.1,10.8,9.2,20,20,19.8C279.6,222.6,288.6,213.4,288.6,203.1z M204.7,355.3
			c-31.3-18.4-61.5-36.1-91.7-53.9c-1,0.6-2.1,1.2-3.1,1.8c1.1,2.8,1.5,7,3.5,8.3c28.6,17.2,57.5,34.1,86.8,51.2
			C201.7,360.2,203,358.1,204.7,355.3z M292,117.8c4.8-8.2,8.9-15.2,13.2-22.7c-5.2-3-9.4-5.5-14.1-8.2c-4.7,8.1-8.8,15.2-13.1,22.6
			C282.9,112.4,287,114.9,292,117.8z M327.8,88.6c1.2-0.3,2.3-0.7,3.5-1c-0.9-2.6-0.9-6.6-2.7-7.7c-11.5-7.3-23.2-14.1-35.1-20.6
			c-1.9-1-5.3,0.6-8.1,1c0,1.1,0,2.2,0.1,3.2C299.6,71.9,313.7,80.2,327.8,88.6z M124.3,338c-1.1,0.3-2.2,0.7-3.2,1
			c0.8,2.2,1,5.5,2.6,6.5c12.1,7.5,24.4,14.8,36.9,21.6c1.6,0.9,4.6-0.8,7-1.3c-0.2-0.9-0.4-1.9-0.6-2.8
			C152.8,354.7,138.6,346.3,124.3,338z M183.5,292.6c4.6-7.8,8.1-13.9,11.7-20c-0.6-0.9-1.3-1.7-1.9-2.6c-2.2,1.4-5.9,2.4-6.4,4.3
			C185.3,279.8,175.4,283.8,183.5,292.6z"/>
	</g>
</g>
</svg>
