<?xml version="1.0" encoding="utf-8"?>
<!-- Generator: Adobe Illustrator 22.1.0, SVG Export Plug-In . SVG Version: 6.00 Build 0)  -->
<svg version="1.1" id="Capa_1" xmlns="http://www.w3.org/2000/svg" xmlns:xlink="http://www.w3.org/1999/xlink" x="0px" y="0px"
	 viewBox="0 0 512 512" style="enable-background:new 0 0 512 512;" xml:space="preserve">
<style type="text/css">
	.st0{fill:#c21718;}
</style>
<g id="Ptx5zR_1_">
	<g>
		<path class="st0" d="M321.6,152.3c1.6,0,2.7,0,3.7,0c13.6,0,27.2,0.2,40.9-0.1c7.2-0.1,11.8,2.9,15,9.3
			c9,18.4,18.4,36.6,27.5,54.9c3.5,7.2,7.6,13.9,12.7,20c4.6,5.5,9.1,11.1,13.1,17.1c1.8,2.6,3.1,6,3.2,9.1
			c0.3,24.1,0.2,48.3,0.1,72.4c0,8.4-5.2,13.7-13.6,13.7c-9.4,0-18.9,0-28.3,0c-1.8,0-2.8,0.5-3.5,2.4
			c-7.1,19.2-24.4,31.4-44.3,31.4c-19.8,0-37.2-12.2-44.3-31.4c-0.7-1.8-1.5-2.4-3.4-2.4c-19.9,0.1-39.9,0.1-59.8,0
			c-2,0-2.7,0.7-3.4,2.5c-7,19.1-24.5,31.4-44.4,31.3c-19.8,0-37-12.2-44.1-31.2c-0.8-2.2-1.9-2.6-4-2.6c-8.1,0.1-16.3,0.1-24.5,0
			c-8.1,0-13.8-5.5-13.7-13c0.1-7.5,5.8-12.8,13.9-12.8c8.2,0,16.3,0,24.5,0c1.6,0,2.6-0.2,3.3-2.1c7.5-20.4,24.5-32.6,44.8-32.4
			c20.6,0.1,37.3,12.5,44.7,33c0.1,0.4,0.3,0.8,0.5,1.3c0.8,0,1.7,0.1,2.5,0.1c19.6,0,39.3,0,58.9,0.1c2.4,0,3.3-0.8,4-2.9
			c6.5-18.9,24.1-31.5,44.1-31.6c19.9-0.1,37.8,12.3,44.4,31.1c0.9,2.5,1.9,3.6,4.7,3.4c4.8-0.3,9.6-0.1,14.9-0.1
			c0.1-1.1,0.2-2.2,0.2-3.2c0-16.8,0.1-33.7-0.1-50.5c0-1.7-0.7-3.6-1.7-4.9c-3.9-5.3-8.1-10.3-11.9-15.6c-1.4-2-3-2.5-5.4-2.5
			c-27.5,0.1-54.9,0.1-82.4,0.1c-9.6,0-14.7-5-14.7-14.6c0-24,0-48.1,0-72.1c0-1.3,0-2.5,0-4.1c-1.8,0-3.1,0-4.5,0
			c-56.7,0-113.5,0-170.2,0c-8.4,0-14.1-4.8-14.5-12.3c-0.4-6.7,4.2-12.4,10.9-13.4c1.6-0.2,3.2-0.3,4.8-0.3c61.3,0,122.7,0,184,0
			c10.5,0,15.4,4.9,15.4,15.3C321.6,147.2,321.6,149.5,321.6,152.3z M321.8,178.1c0,14.3,0,28.1,0,42c19.9,0,39.7,0,59.8,0
			c-5.5-10.9-10.7-21.4-16-31.9c-1.6-3.2-2.6-7.7-5.2-9.3c-2.8-1.7-7.2-0.7-10.9-0.7C340.2,178.1,331.1,178.1,321.8,178.1z
			 M192.8,314.4c-11.6,0-21.1,9.4-21.1,21c0,11.6,9.4,21.1,21,21.1c11.8,0,21.4-9.5,21.3-21.2C213.9,323.8,204.4,314.4,192.8,314.4z
			 M348.1,356.6c11.6,0,21.1-9.6,21-21.1c-0.1-11.6-9.5-21-21.1-21c-11.8,0-21.3,9.5-21.2,21.2C326.9,347.2,336.4,356.6,348.1,356.6
			z"/>
		<path class="st0" d="M154.3,176.1c16.2,0,32.4-0.1,48.6,0c6.1,0,11.2,4.4,12.4,10.2c1.2,6.1-1.9,12.2-7.5,14.5
			c-1.7,0.7-3.7,1.1-5.6,1.1c-32,0.1-63.9,0.1-95.9,0c-7.8,0-13.6-5.7-13.5-13c0.1-7.4,5.8-12.8,13.6-12.8
			C122.4,176.1,138.4,176.1,154.3,176.1z"/>
		<path class="st0" d="M135.5,246.6c-16,0-32,0-47.9,0c-6,0-10.5-3.2-12.4-8.4c-1.8-5-0.6-10.9,3.6-14c2.5-1.8,5.8-3.3,8.7-3.3
			c32.2-0.2,64.3-0.2,96.5-0.1c7.4,0,12.9,5.6,13,12.7c0.1,7.3-5.3,13-13,13.1C167.9,246.7,151.7,246.6,135.5,246.6z"/>
		<path class="st0" d="M131.8,291.3c-8.5,0-16.9,0-25.4,0c-7.8,0-13.5-5.5-13.6-12.8c-0.1-7.3,5.7-13,13.4-13
			c17-0.1,34.1-0.1,51.1,0c7.9,0,13.6,5.5,13.6,12.8c0.1,7.4-5.8,13-13.7,13.1C148.8,291.3,140.3,291.3,131.8,291.3z"/>
	</g>
</g>
</svg>
