<?xml version="1.0" encoding="utf-8"?>
<!-- Generator: Adobe Illustrator 22.1.0, SVG Export Plug-In . SVG Version: 6.00 Build 0)  -->
<svg version="1.1" id="Capa_1" xmlns="http://www.w3.org/2000/svg" xmlns:xlink="http://www.w3.org/1999/xlink" x="0px" y="0px"
	 viewBox="0 0 512 512" style="enable-background:new 0 0 512 512;" xml:space="preserve">
<style type="text/css">
	.st0{fill:#d3d3d3;}
</style>
<g id="yQ6j5Y_6_">
	<g>
		<path class="st0" d="M248,78.7c5.3,0,10.6,0,15.9,0c0.8,0.1,1.5,0.3,2.3,0.3c14.6,0.8,28.8,3.3,42.7,7.8
			c37.6,12.1,68,34.1,91.1,66.1c18.1,25.1,28.7,53.1,32.1,83.9c0.4,3.7,0.7,7.4,1.1,11.1c0,5.3,0,10.6,0,15.9
			c-0.1,0.8-0.3,1.5-0.3,2.3c-0.6,11.6-2.4,23-5.4,34.2c-10.9,40.7-33.3,73.7-67.3,98.7c-25.4,18.7-54,29.7-85.4,33.1
			c-3.6,0.4-7.3,0.7-10.9,1c-5.3,0-10.6,0-15.9,0c-0.8-0.1-1.5-0.3-2.3-0.3c-17.4-1-34.4-4.4-50.8-10.5
			c-38.3-14.4-68.3-38.9-89.9-73.6c-14.1-22.6-22.4-47.2-25.3-73.7c-0.4-3.7-0.7-7.4-1.1-11.1c0-5.3,0-10.6,0-15.9
			c0.1-0.8,0.3-1.5,0.3-2.3c0.5-10,1.8-19.8,4.2-29.5c11.4-47.2,37.6-84,78.4-110.2c23-14.8,48.2-23.4,75.4-26.3
			C240.7,79.4,244.4,79.1,248,78.7z M255.9,411.1c85.4,0.1,155.1-69.6,155.2-155.1c0.1-85.5-69.5-155.1-155-155.2
			c-85.4-0.1-155.1,69.6-155.2,155.1C100.8,341.4,170.4,411,255.9,411.1z"/>
		<path class="st0" d="M176.8,354.7c-6.6,0-13,0-19.6,0c0.1-19.7,5.6-37.7,16.5-54c10.9-16.2,25.4-28.1,43.4-36
			c-19.9-14.6-30.5-33.8-30.1-58.5c0.3-19.3,8-35.5,22-48.7c27.8-26.1,73.4-23.8,98.7,4.6c27.2,30.6,22.3,78.5-12.5,102.4
			c37.6,18.3,57.8,48,59.9,90.2c-6.9,0-13.4,0-19.9,0c-0.8-26.1-11.3-47.3-32.3-62.9c-15.7-11.7-33.6-16.5-53.1-15.1
			C209.2,279.7,176.6,313.8,176.8,354.7z M256,158.8c-27.3,0-49.4,22-49.4,49.1c0,27.1,22.1,49,49.5,49c27.3,0,49.5-22,49.4-49
			C305.4,180.7,283.2,158.8,256,158.8z"/>
	</g>
</g>
</svg>
